<?xml version="1.0" encoding="UTF-8" standalone="no"?>
<svg
   xmlns:dc="http://purl.org/dc/elements/1.1/"
   xmlns:cc="http://creativecommons.org/ns#"
   xmlns:rdf="http://www.w3.org/1999/02/22-rdf-syntax-ns#"
   xmlns:svg="http://www.w3.org/2000/svg"
   xmlns="http://www.w3.org/2000/svg"
   xmlns:sodipodi="http://sodipodi.sourceforge.net/DTD/sodipodi-0.dtd"
   xmlns:inkscape="http://www.inkscape.org/namespaces/inkscape"
   id="Layer_1"
   data-name="Layer 1"
   viewBox="0 0 223.71 263.95"
   version="1.1"
   sodipodi:docname="ornament2022_export_randomized_final.svg"
   inkscape:version="0.92.5 (2060ec1f9f, 2020-04-08)">
  <metadata
     id="metadata47">
    <rdf:RDF>
      <cc:Work
         rdf:about="">
        <dc:format>image/svg+xml</dc:format>
        <dc:type
           rdf:resource="http://purl.org/dc/dcmitype/StillImage" />
        <dc:title></dc:title>
      </cc:Work>
    </rdf:RDF>
  </metadata>
  <sodipodi:namedview
     pagecolor="#ffffff"
     bordercolor="#666666"
     borderopacity="1"
     objecttolerance="10"
     gridtolerance="10"
     guidetolerance="10"
     inkscape:pageopacity="0"
     inkscape:pageshadow="2"
     inkscape:window-width="3840"
     inkscape:window-height="2047"
     id="namedview45"
     showgrid="false"
     inkscape:zoom="0.89410869"
     inkscape:cx="111.855"
     inkscape:cy="131.97501"
     inkscape:window-x="0"
     inkscape:window-y="0"
     inkscape:window-maximized="1"
     inkscape:current-layer="Layer_1" />
  <defs
     id="defs4">
    <style
       id="style2">
      .cls-1, .cls-2 {
        fill: #fff;
      }

      .cls-3 {
        fill: none;
        stroke: #fff200;
        stroke-width: .5px;
      }

      .cls-3, .cls-2 {
        stroke-miterlimit: 10;
      }

      .cls-2 {
        stroke: #000;
      }
    </style>
  </defs>
  <g
     id="Layer_2"
     data-name="Layer 2">
    <g
       id="Layer_3"
       data-name="Layer 3">
      <g
         id="g10">
        <path
           class="cls-1"
           d="M111.97,263.7c-5.02,0-9.92-.53-14.56-1.58-3.38-.77-5.71-2.32-6.93-4.59-2.22-4.16-.14-9.62,1.7-14.43,.83-2.17,1.61-4.21,1.93-5.9,.81-4.2,1.26-8.38,1.58-12.05-.73-.34-1.57-.51-2.49-.51-.41,0-.83,.04-1.25,.11-1.06,.17-2.13,.55-3.13,1.12-7.77,5.2-16.14,8.19-22.97,8.19s-12.19-2.96-15.31-8.56c-.74-1.3-1.35-2.81-1.91-4.73-.11-.39-.21-.81-.3-1.23-.24-1.07-.42-1.78-.8-2.01-.51-.31-1.37-.32-2.28-.33-.25,0-.5-.01-.75-.01-4.36,.4-8.39,.61-12,.61-5.77,0-10.64-.53-14.47-1.56C1.8,211.82,.49,201.83,.38,200.38c-.24-1.68-1.47-14.23,13.54-18.44,10.46-2.92,20.32-6.91,29.34-11.88-3.69-.54-6.61-1.08-8.88-1.63-16.41-3.9-17.61-14.32-17.7-15.87-.25-1.76-1.44-14.25,13.52-18.44,9.41-2.64,18.37-6.15,26.68-10.46-.85-.12-1.67-.26-2.44-.4-14.23-2.64-15.92-11.49-16.11-13.04-.89-4.05,.25-12.56,10.87-16.74,9.07-3.59,18.18-8.64,25.14-12.89-.24,0-.5,0-.78,0-7.41,0-12.95-3.57-15.21-9.8-3.51-9.75,4.34-16.5,8.98-18.7,22.05-10.31,37-40.06,37.14-40.36,2.17-4.16,4.5-6.25,6.95-6.25,.18,0,.35,0,.5,.03,.15-.02,.32-.03,.5-.03,2.45,0,4.79,2.08,6.95,6.19,.17,.35,15.12,30.09,37.14,40.42,4.65,2.21,12.5,8.96,8.97,18.71-2.25,6.23-7.79,9.8-15.19,9.8-.28,0-.54,0-.79,0,6.93,4.25,16.03,9.3,25.16,12.9,10.61,4.18,11.75,12.69,10.85,16.74-.19,1.55-1.87,10.42-16.12,13.04-.76,.15-1.58,.28-2.44,.4,8.31,4.31,17.26,7.82,26.67,10.46,14.98,4.17,13.79,16.68,13.54,18.44-.09,1.55-1.3,11.95-17.71,15.87-2.25,.55-5.16,1.09-8.86,1.63,9.04,4.96,18.89,8.95,29.31,11.88,15,4.21,13.67,16.67,13.42,18.39-.11,1.5-1.46,11.43-17.64,15.85-3.83,1.04-8.69,1.57-14.45,1.57h0c-2.91,0-6.1-.13-9.51-.4h0c-.94,.02-1.75,.03-2.25,.33-.36,.23-.55,.96-.8,2.05-.09,.41-.19,.82-.3,1.2-.51,1.79-1.13,3.34-1.89,4.73-3.12,5.6-8.41,8.56-15.3,8.56-8.81,0-17.43-4.64-21.83-7.45-.14-.08-.28-.16-.41-.23l-.25-.14c-.54-.32-1.21-.58-1.88-.73-.3-.05-.59-.07-.87-.07-.1,0-.21,0-.31,.01-.87,.07-1.84,.4-2.71,.95-.33,.21-.67,.47-1,.73l-.41,.31c-.12,.1-.25,.19-.38,.28l-.22,.16c-.16,.13-.32,.24-.5,.35l-.11,.07c-.14,.09-.29,.19-.45,.28-.39,.24-.81,.48-1.26,.72,.33,2.94,.7,5.44,1.15,7.77,.32,1.68,1.1,3.72,1.93,5.88,1.85,4.82,3.94,10.29,1.71,14.46-1.22,2.28-3.55,3.82-6.94,4.59-4.57,.99-9.45,1.52-14.46,1.52Z"
           id="path6" />
        <path
           class="cls-3"
           d="M111.97,263.7c-5.02,0-9.92-.53-14.56-1.58-3.38-.77-5.71-2.32-6.93-4.59-2.22-4.16-.14-9.62,1.7-14.43,.83-2.17,1.61-4.21,1.93-5.9,.81-4.2,1.26-8.38,1.58-12.05-.73-.34-1.57-.51-2.49-.51-.41,0-.83,.04-1.25,.11-1.06,.17-2.13,.55-3.13,1.12-7.77,5.2-16.14,8.19-22.97,8.19s-12.19-2.96-15.31-8.56c-.74-1.3-1.35-2.81-1.91-4.73-.11-.39-.21-.81-.3-1.23-.24-1.07-.42-1.78-.8-2.01-.51-.31-1.37-.32-2.28-.33-.25,0-.5-.01-.75-.01-4.36,.4-8.39,.61-12,.61-5.77,0-10.64-.53-14.47-1.56C1.8,211.82,.49,201.83,.38,200.38c-.24-1.68-1.47-14.23,13.54-18.44,10.46-2.92,20.32-6.91,29.34-11.88-3.69-.54-6.61-1.08-8.88-1.63-16.41-3.9-17.61-14.32-17.7-15.87-.25-1.76-1.44-14.25,13.52-18.44,9.41-2.64,18.37-6.15,26.68-10.46-.85-.12-1.67-.26-2.44-.4-14.23-2.64-15.92-11.49-16.11-13.04-.89-4.05,.25-12.56,10.87-16.74,9.07-3.59,18.18-8.64,25.14-12.89-.24,0-.5,0-.78,0-7.41,0-12.95-3.57-15.21-9.8-3.51-9.75,4.34-16.5,8.98-18.7,22.05-10.31,37-40.06,37.14-40.36,2.17-4.16,4.5-6.25,6.95-6.25,.18,0,.35,0,.5,.03,.15-.02,.32-.03,.5-.03,2.45,0,4.79,2.08,6.95,6.19,.17,.35,15.12,30.09,37.14,40.42,4.65,2.21,12.5,8.96,8.97,18.71-2.25,6.23-7.79,9.8-15.19,9.8-.28,0-.54,0-.79,0,6.93,4.25,16.03,9.3,25.16,12.9,10.61,4.18,11.75,12.69,10.85,16.74-.19,1.55-1.87,10.42-16.12,13.04-.76,.15-1.58,.28-2.44,.4,8.31,4.31,17.26,7.82,26.67,10.46,14.98,4.17,13.79,16.68,13.54,18.44-.09,1.55-1.3,11.95-17.71,15.87-2.25,.55-5.16,1.09-8.86,1.63,9.04,4.96,18.89,8.95,29.31,11.88,15,4.21,13.67,16.67,13.42,18.39-.11,1.5-1.46,11.43-17.64,15.85-3.83,1.04-8.69,1.57-14.45,1.57h0c-2.91,0-6.1-.13-9.51-.4h0c-.94,.02-1.75,.03-2.25,.33-.36,.23-.55,.96-.8,2.05-.09,.41-.19,.82-.3,1.2-.51,1.79-1.13,3.34-1.89,4.73-3.12,5.6-8.41,8.56-15.3,8.56-8.81,0-17.43-4.64-21.83-7.45-.14-.08-.28-.16-.41-.23l-.25-.14c-.54-.32-1.21-.58-1.88-.73-.3-.05-.59-.07-.87-.07-.1,0-.21,0-.31,.01-.87,.07-1.84,.4-2.71,.95-.33,.21-.67,.47-1,.73l-.41,.31c-.12,.1-.25,.19-.38,.28l-.22,.16c-.16,.13-.32,.24-.5,.35l-.11,.07c-.14,.09-.29,.19-.45,.28-.39,.24-.81,.48-1.26,.72,.33,2.94,.7,5.44,1.15,7.77,.32,1.68,1.1,3.72,1.93,5.88,1.85,4.82,3.94,10.29,1.71,14.46-1.22,2.28-3.55,3.82-6.94,4.59-4.57,.99-9.45,1.52-14.46,1.52Z"
           id="path8" />
      </g>
    </g>
    <g
       id="g17">
      <path
         class="cls-2"
         d="M127.63,237.6c-1.77-9.17-1.93-18.56-2.86-27.83-.14-1.21-.28-2.44-.32-3.65-.06-2.58-1.35-4.29-3.77-5.24-1.25-.5-2.86-.42-4.17-.64-1.43-.24-2.78-.34-4.23-.3-.12,0-.24,.02-.36,.04-.1-.02-.22-.04-.34-.04-1.45-.04-2.82,.06-4.25,.3-1.33,.22-2.92,.14-4.19,.64-2.42,.95-3.71,2.66-3.77,5.24-.04,1.21-.18,2.44-.3,3.65-.93,9.29-1.09,18.66-2.86,27.83-1.43,7.52-10.42,19.65,1.65,22.41,8.97,2.02,19.14,2.04,28.11,0,12.1-2.74,3.11-14.88,1.66-22.41Z"
         id="path13" />
      <path
         class="cls-2"
         d="M209.34,184.01c-13.64-3.83-24.36-8.93-31.94-13.28-.54-.48-1.31-.87-1.05-1.65,.18-.5,.83-.69,1.31-.79,4.57-.62,8.48-1.27,11.31-1.97,15.94-3.81,16.06-13.97,16.06-13.97,0,0,2.34-12.17-11.97-16.16-12.6-3.53-22.73-8.16-30.19-12.29-.52-.34-.99-.69-.77-1.31,.12-.34,.38-.5,.67-.58,2.34-.28,4.49-.56,6.25-.89,13.82-2.54,14.37-11.27,14.37-11.27,0,0,2.32-9.71-9.51-14.37-11-4.33-22.03-10.8-29.3-15.44-.38-.4-.87-.91-.64-1.45,.22-.52,.83-.56,1.31-.62h.06l2.12,.24s12.23,2.32,16.02-8.16-7.86-16.02-7.86-16.02c-22.99-10.78-38.13-41.37-38.13-41.37-3.22-6.11-5.54-4.94-5.54-4.94,0,0-2.32-1.17-5.52,4.96,0,0-15.15,30.59-38.15,41.35,0,0-11.65,5.54-7.88,16.02,3.79,10.48,16.04,8.16,16.04,8.16l2.12-.24h.04c.5,.08,1.09,.1,1.33,.62,.24,.54-.26,1.05-.64,1.45-7.27,4.63-18.3,11.1-29.3,15.44-11.85,4.66-9.53,14.37-9.53,14.37,0,0,.56,8.71,14.37,11.27,1.79,.34,3.93,.62,6.25,.89,.3,.1,.56,.26,.66,.58,.22,.62-.26,.97-.77,1.31-7.46,4.13-17.59,8.75-30.19,12.29-14.29,4.01-11.95,16.16-11.95,16.16,0,0,.12,10.18,16.06,13.97,2.86,.69,6.77,1.35,11.31,1.97,.46,.1,1.15,.32,1.31,.79,.26,.77-.52,1.17-1.05,1.65-7.58,4.37-18.3,9.47-31.96,13.28-14.29,4.01-11.97,16.14-11.97,16.14,0,0,.26,9.69,16.06,13.99,6.53,1.77,15.68,1.83,25.85,.87,1.43,.06,2.96-.1,4.21,.66,1.55,.93,1.61,2.94,2.06,4.49,.44,1.49,.97,2.96,1.73,4.29,6.73,12.09,23.28,7.62,35.25-.42,1.17-.67,2.52-1.19,3.91-1.41,1.89-.32,3.85-.1,5.52,.83,.14,.08,.32,.2,.46,.3,1.31,1.11,2.68,2.14,4.17,3,2.7,1.57,6.07,2.34,9.09,3.06,5.58,1.33,12.7,.34,17.94-2.96,.22-.12,.44-.28,.58-.36s.24-.18,.38-.28c.16-.12,.32-.22,.46-.34,.54-.4,1.05-.81,1.61-1.17,1.11-.69,2.4-1.17,3.71-1.27,.6-.04,1.17,0,1.75,.1,.89,.2,1.79,.54,2.56,.99,.16,.08,.4,.24,.64,.36,11.85,7.58,27.63,11.45,34.16-.28,.75-1.37,1.29-2.82,1.71-4.29,.46-1.57,.54-3.55,2.06-4.51,1.03-.62,2.24-.62,3.43-.64,9.15,.71,17.33,.54,23.32-1.09,15.8-4.31,16.06-13.99,16.06-13.99,0,0,2.45-12.06-11.84-16.07Z"
         id="path15" />
    </g>
  </g>
  <g
     id="g26">
    <path
       d="M75.86,66.59c.79,.58,1.61,.66,2.56,.66,2.5-.02,5.02-1.73,7.4-1.45,.6,.02,1.12,.16,1.59,.36,2.24,.87,3.69,2.6,6.93,1.33,2.06-.81,3.91-3.89,4.21-6.01,.44-3.3-1.81-2.5-3.95-3.55-.64-1.67,1.23-4.31,.28-6.17-1.37-2.66-5.58,.18-6.81,1.59-1.97,2.24-3.63,3.91-6.39,5.36-1.85,.97-9.65,5.08-5.82,7.88Z"
       id="path20" />
    <path
       d="M92.91,146.49c-2.2-1.19-3.97,.97-6.01,.6-3.1-.56-2.34-2.9-4.53-4.59-2.64-2.04-6.75,1.39-8.67-.64-1.61-1.69-.54-4.51-1.95-6.09-.67-.73-1.49-1.09-2.38-1.21-1.91-.26-4.15,.54-5.74,1.31-6.51,3.18-12.96,6.53-19.53,9.63-2.32,1.09-6.01,2.18-5.9,5.4,.18,5.88,10.32,3.37,13.72,2.98,3-.34,7.9-1.53,10.36,.89,1.43,1.39,2.1,2.22,4.19,2.44,3.51,.38,8.1-3.16,11.26-1.45,1.31,.69,2.04,1.65,3.51,2.14,3.55,1.23,7.88-.24,10.8-2.42,2.48-1.85,4.25-7.19,.87-8.99Z"
       id="path22" />
    <path
       d="M86.04,192.21c-6.37,1.77-4.31-1.69-8.95-3.41-3.3-1.23-6.35,1.93-9.37-.77-2.38-2.1-.99-6.27-5.12-7.18-5.42-1.05-10.9,3.02-15.56,5.1-5.14,2.28-10.84,2.64-15.92,5.08-3.37,1.63-3.04,6.75,.26,8.22,3.02,1.33,6.87,.95,10.06,.77,4.72-.26,9.21-2.3,13.93-2.74,6.45-.58,6.77,1.15,7.86,6.69,.81,4.01,5.06,6.19,8.95,5.36,2.02-.44,3.79-2.18,5.7-3.02,2.38-1.05,2.26-.75,4.55,.02,1.65,.56,3.77,.52,5.38-.1,2.7-1.01,3.97-3.14,4.03-5.86,.08-4.23,.04-9.77-5.8-8.16Z"
       id="path24" />
  </g>
  <g
     id="g40">
    <rect
       class="cls-1"
       x="107.54"
       y="42"
       width="8.64"
       height="4.32"
       id="rect28" />
    <rect
       class="cls-1"
       x="143.54"
       y="106.13"
       width="8.64"
       height="4.32"
       id="rect30" />
    <rect
       class="cls-1"
       x="161.54"
       y="146.49"
       width="8.64"
       height="4.32"
       id="rect32" />
    <rect
       class="cls-1"
       x="73.45"
       y="160.79"
       width="8.64"
       height="4.32"
       id="rect34" />
    <rect
       class="cls-1"
       x="107.03"
       y="198.26"
       width="8.64"
       height="4.32"
       id="rect36" />
    <rect
       class="cls-1"
       x="179.54"
       y="196.1"
       width="8.64"
       height="4.32"
       id="rect38" />
  </g>
  <path
     d="M98.52,103.65c-2.22,.32-3.75,.81-4.96-1.45-1.57-2.98-6.09,.73-7.19-1.41-.5-.93,.56-2.96,.38-4.07-.22-1.39-1.03-2.44-2.5-2.68-2.3-.38-4.19,.24-6.03,1.25-3.45,1.89-6.45,3.39-10.2,4.59-.97,.26-2.22,.6-3.55,1.07-2.84,1.01-8.89,4.76-5.08,8.24,2.66,2.44,8.34,1.03,11.45,.26,1.31-.32,3.02-1.23,4.39-1.15,1.47,.08,1.49,1.15,1.97,2.34,.99,2.44,2.8,2.92,5.3,2.92,1.51,0,2.72,.08,4.09-.58,3.26-1.55,3.04-.77,6.03,.3,3.49,1.25,6.51-.48,8.56-3.3,.67-.91,1.19-2.32,1.13-3.41-.1-2.12-1.59-3.22-3.79-2.92Zm-2.54,6.8h-8.64v-4.32h8.64v4.32Z"
     id="path42" />
</svg>
