<?xml version="1.0" encoding="UTF-8" standalone="no"?>
<!-- Generator: Adobe Illustrator 27.0.0, SVG Export Plug-In . SVG Version: 6.00 Build 0)  -->

<svg
   xmlns:dc="http://purl.org/dc/elements/1.1/"
   xmlns:cc="http://creativecommons.org/ns#"
   xmlns:rdf="http://www.w3.org/1999/02/22-rdf-syntax-ns#"
   xmlns:svg="http://www.w3.org/2000/svg"
   xmlns="http://www.w3.org/2000/svg"
   xmlns:sodipodi="http://sodipodi.sourceforge.net/DTD/sodipodi-0.dtd"
   xmlns:inkscape="http://www.inkscape.org/namespaces/inkscape"
   version="1.1"
   x="0px"
   y="0px"
   viewBox="0 0 223.30653 258.31"
   xml:space="preserve"
   id="svg37"
   sodipodi:docname="ornament2022_export.svg"
   inkscape:version="0.92.5 (2060ec1f9f, 2020-04-08)"
   width="223.30653"
   height="258.31"><metadata
   id="metadata43"><rdf:RDF><cc:Work
       rdf:about=""><dc:format>image/svg+xml</dc:format><dc:type
         rdf:resource="http://purl.org/dc/dcmitype/StillImage" /></cc:Work></rdf:RDF></metadata><defs
   id="defs41" /><sodipodi:namedview
   pagecolor="#ffffff"
   bordercolor="#666666"
   borderopacity="1"
   objecttolerance="10"
   gridtolerance="10"
   guidetolerance="10"
   inkscape:pageopacity="0"
   inkscape:pageshadow="2"
   inkscape:window-width="3840"
   inkscape:window-height="2047"
   id="namedview39"
   showgrid="false"
   inkscape:zoom="6.9451435"
   inkscape:cx="111.58127"
   inkscape:cy="129.01101"
   inkscape:window-x="0"
   inkscape:window-y="0"
   inkscape:window-maximized="1"
   inkscape:current-layer="layer2"
   inkscape:pagecheckerboard="true"
   borderlayer="false" />
<style
   type="text/css"
   id="style2">
	.st0{fill:#76803F;}
	.st1{fill:#FFFFFF;stroke:#000000;stroke-miterlimit:10;}
	.st2{fill:#FFFFFF;}
	.st3{fill:none;stroke:#FFF200;stroke-width:0.5;stroke-miterlimit:10;}
</style>


<g
   inkscape:groupmode="layer"
   id="layer2"
   inkscape:label="F.SilkS"
   style="display:inline"
   transform="translate(-68.343985,-54.67)"><g
     id="g34"
     style="display:inline"
     inkscape:label="Tree">
		<g
   id="g24"
   style="display:inline"
   inkscape:label="Tree Outline"><path
   inkscape:connector-curvature="0"
   d="m 166.96717,153.28416 c -2.22,0.32 -3.75,0.81 -4.96,-1.45 -1.57,-2.98 -6.09,0.73 -7.19,-1.41 -0.5,-0.93 0.56,-2.96 0.38,-4.07 -0.22,-1.39 -1.03,-2.44 -2.5,-2.68 -2.3,-0.38 -4.19,0.24 -6.03,1.25 -3.45,1.89 -6.45,3.39 -10.2,4.59 -0.97,0.26 -2.22,0.6 -3.55,1.07 -2.84,1.01 -8.89,4.76 -5.08,8.24 2.66,2.44 8.34,1.03 11.45,0.26 1.31,-0.32 3.02,-1.23 4.39,-1.15 1.47,0.08 1.49,1.15 1.97,2.34 0.99,2.44 2.8,2.92 5.3,2.92 1.51,0 2.72,0.08 4.09,-0.58 3.26,-1.55 3.04,-0.77 6.03,0.3 3.49,1.25 6.51,-0.48 8.56,-3.3 0.67,-0.91 1.19,-2.32 1.13,-3.41 -0.1,-2.12 -1.59,-3.22 -3.79,-2.92 z m -2.54,6.8 h -8.64 v -4.32 h 8.64 z"
   id="path42"
   style="display:none" />
			<path
   style="fill:none;stroke:#000000;stroke-miterlimit:10"
   d="m 166.06641,273.28906 c -0.3736,4.53975 -0.85265,9.06403 -1.7168,13.54102 -1.43,7.52 -10.41961,19.65015 1.65039,22.41015 8.97,2.02 19.13937,2.04 28.10938,0 12.09999,-2.74 3.11015,-14.88015 1.66015,-22.41015 -0.60309,-3.12447 -1.01058,-6.2754 -1.33398,-9.4375 -4.8724,2.22424 -10.7361,2.77871 -15.48633,1.64648 -3.02,-0.72 -6.38985,-1.48859 -9.08984,-3.05859 -1.34911,-0.77868 -2.59609,-1.7008 -3.79297,-2.69141 z"
   id="path20"
   inkscape:connector-curvature="0" />
			
		<path
   inkscape:connector-curvature="0"
   id="path918"
   d="m 277.48,233.24 c -13.64,-3.83 -24.36,-8.93 -31.94,-13.28 -0.54,-0.48 -1.31,-0.87 -1.05,-1.65 0.18,-0.5 0.83,-0.69 1.31,-0.79 4.57,-0.62 8.48,-1.27 11.31,-1.97 15.94,-3.81 16.06,-13.97 16.06,-13.97 0,0 2.34,-12.17 -11.97,-16.16 -12.6,-3.53 -22.73,-8.16 -30.19,-12.29 -0.52,-0.34 -0.99,-0.69 -0.77,-1.31 0.12,-0.34 0.38,-0.5 0.67,-0.58 2.34,-0.28 4.49,-0.56 6.25,-0.89 13.82,-2.54 14.37,-11.27 14.37,-11.27 0,0 2.32,-9.71 -9.51,-14.37 -11,-4.33 -22.03,-10.8 -29.3,-15.44 -0.38,-0.4 -0.87,-0.91 -0.64,-1.45 0.22,-0.52 0.83,-0.56 1.31,-0.62 h 0.06 l 2.12,0.24 c 0,0 12.23,2.32 16.02,-8.16 3.79,-10.48 -7.86,-16.02 -7.86,-16.02 C 200.74,92.48 185.6,61.89 185.6,61.89 c -2.60128,-5.601767 -5.54,-4.94 -5.54,-4.94 0,0 -2.59621,0.03429 -5.52,4.96 0,0 -15.15,30.59 -38.15,41.35 0,0 -11.65,5.54 -7.88,16.02 3.79,10.48 16.04,8.16 16.04,8.16 l 2.12,-0.24 h 0.04 c 0.5,0.08 1.09,0.1 1.33,0.62 0.24,0.54 -0.26,1.05 -0.64,1.45 -7.27,4.63 -18.3,11.1 -29.3,15.44 -11.85,4.66 -9.53,14.37 -9.53,14.37 0,0 0.56,8.71 14.37,11.27 1.79,0.34 3.93,0.62 6.25,0.89 0.3,0.1 0.56,0.26 0.66,0.58 0.22,0.62 -0.26,0.97 -0.77,1.31 -7.46,4.13 -17.59,8.75 -30.19,12.29 -14.29,4.01 -11.95,16.16 -11.95,16.16 0,0 0.12,10.18 16.06,13.97 2.86,0.69 6.77,1.35 11.31,1.97 0.46,0.1 1.15,0.32 1.31,0.79 0.26,0.77 -0.52,1.17 -1.05,1.65 -7.58,4.37 -18.3,9.47 -31.96,13.28 -14.29,4.01 -11.97,16.14 -11.97,16.14 0,0 0.26,9.69 16.06,13.99 6.53,1.77 15.68,1.83 25.85,0.87 1.43,0.06 2.96,-0.1 4.21,0.66 1.55,0.93 1.61,2.94 2.06,4.49 0.44,1.49 0.97,2.96 1.73,4.29 6.73,12.09 23.28,7.62 35.25,-0.42 1.17,-0.67 2.52,-1.19 3.91,-1.41 1.89,-0.32 3.85,-0.1 5.52,0.83 0.14,0.08 0.32,0.2 0.46,0.3 1.31,1.11 2.68,2.14 4.17,3 2.7,1.57 6.07,2.34 9.09,3.06 5.58,1.33 12.7,0.34 17.94,-2.96 0.22,-0.12 0.44,-0.28 0.58,-0.36 0.14,-0.08 0.24,-0.18 0.38,-0.28 0.16,-0.12 0.32,-0.22 0.46,-0.34 0.54,-0.4 1.05,-0.81 1.61,-1.17 1.11,-0.69 2.4,-1.17 3.71,-1.27 0.6,-0.04 1.17,0 1.75,0.1 0.89,0.2 1.79,0.54 2.56,0.99 0.16,0.08 0.4,0.24 0.64,0.36 11.85,7.58 27.63,11.45 34.16,-0.28 0.75,-1.37 1.29,-2.82 1.71,-4.29 0.46,-1.57 0.54,-3.55 2.06,-4.51 1.03,-0.62 2.24,-0.62 3.43,-0.64 9.15,0.71 17.33,0.54 23.32,-1.09 15.8,-4.31 16.06,-13.99 16.06,-13.99 0,0 2.45,-12.06 -11.84,-16.07 z"
   style="display:inline;fill:none;stroke:#000000;stroke-miterlimit:10;stroke-opacity:1"
   sodipodi:nodetypes="ccccccccccccccccccscccccccccccccccccccccccccccccccccccccscccccccccccccc" /></g>
		<path
   d="m 155.55,115.39 c 2.24,0.87 3.69,2.6 6.93,1.33 2.06,-0.81 3.91,-3.89 4.21,-6.01 0.44,-3.3 -1.81,-2.5 -3.95,-3.55 -0.64,-1.67 1.23,-4.31 0.28,-6.17 -1.37,-2.66 -5.58,0.18 -6.81,1.59 -1.97,2.24 -3.63,3.91 -6.39,5.36 -1.85,0.97 -9.65,5.08 -5.82,7.88 0.79,0.58 1.61,0.66 2.56,0.66 2.5,-0.02 5.02,-1.73 7.4,-1.45 0.6,0.02 1.12,0.16 1.59,0.36 z"
   id="path26"
   inkscape:connector-curvature="0"
   style="stroke:#000000;stroke-opacity:1" />
		<path
   d="m 132.61,150.18 c -2.84,1.01 -8.89,4.76 -5.08,8.24 2.66,2.44 8.34,1.03 11.45,0.26 1.31,-0.32 3.02,-1.23 4.39,-1.15 1.47,0.08 1.49,1.15 1.97,2.34 0.99,2.44 2.8,2.92 5.3,2.92 1.51,0 2.72,0.08 4.09,-0.58 3.26,-1.55 3.04,-0.77 6.03,0.3 3.49,1.25 6.51,-0.48 8.56,-3.3 0.67,-0.91 1.19,-2.32 1.13,-3.41 -0.1,-2.12 -1.59,-3.22 -3.79,-2.92 -2.22,0.32 -3.75,0.81 -4.96,-1.45 -1.57,-2.98 -6.09,0.73 -7.19,-1.41 -0.5,-0.93 0.56,-2.96 0.38,-4.07 -0.22,-1.39 -1.03,-2.44 -2.5,-2.68 -2.3,-0.38 -4.19,0.24 -6.03,1.25 -3.45,1.89 -6.45,3.39 -10.2,4.59 -0.97,0.26 -2.22,0.6 -3.55,1.07 z"
   id="path28"
   inkscape:connector-curvature="0"
   style="stroke:#000000;stroke-opacity:1" />
		<path
   d="m 137.51,183.79 c -1.91,-0.26 -4.15,0.54 -5.74,1.31 -6.51,3.18 -12.96,6.53 -19.53,9.63 -2.32,1.09 -6.01,2.18 -5.9,5.4 0.18,5.88 10.32,3.37 13.72,2.98 3,-0.34 7.9,-1.53 10.36,0.89 1.43,1.39 2.1,2.22 4.19,2.44 3.51,0.38 8.1,-3.16 11.26,-1.45 1.31,0.69 2.04,1.65 3.51,2.14 3.55,1.23 7.88,-0.24 10.8,-2.42 2.48,-1.85 4.25,-7.19 0.87,-8.99 -2.2,-1.19 -3.97,0.97 -6.01,0.6 -3.1,-0.56 -2.34,-2.9 -4.53,-4.59 -2.64,-2.04 -6.75,1.39 -8.67,-0.64 -1.61,-1.69 -0.54,-4.51 -1.95,-6.09 -0.67,-0.73 -1.49,-1.09 -2.38,-1.21 z"
   id="path30"
   inkscape:connector-curvature="0"
   style="stroke:#000000;stroke-opacity:1" />
		<path
   d="m 130.74,230.08 c -5.42,-1.05 -10.9,3.02 -15.56,5.1 -5.14,2.28 -10.84,2.64 -15.92,5.08 -3.37,1.63 -3.04,6.75 0.26,8.22 3.02,1.33 6.87,0.95 10.06,0.77 4.72,-0.26 9.21,-2.3 13.93,-2.74 6.45,-0.58 6.77,1.15 7.86,6.69 0.81,4.01 5.06,6.19 8.95,5.36 2.02,-0.44 3.79,-2.18 5.7,-3.02 2.38,-1.05 2.26,-0.75 4.55,0.02 1.65,0.56 3.77,0.52 5.38,-0.1 2.7,-1.01 3.97,-3.14 4.03,-5.86 0.08,-4.23 0.04,-9.77 -5.8,-8.16 -6.37,1.77 -4.31,-1.69 -8.95,-3.41 -3.3,-1.23 -6.35,1.93 -9.37,-0.77 -2.38,-2.1 -0.99,-6.27 -5.12,-7.18 z"
   id="path32"
   inkscape:connector-curvature="0"
   inkscape:label="path32"
   style="stroke:#000000;stroke-opacity:1" />
	</g></g><g
   inkscape:groupmode="layer"
   id="layer3"
   inkscape:label="Edge.Cuts"
   style="display:inline"
   transform="translate(-68.343985,-54.67)"><g
     id="Layer_2"
     style="display:inline"
     inkscape:label="Edge.Cuts"
     inkscape:groupmode="layer">
	<g
   id="Layer_3"
   style="display:inline"
   inkscape:label="Tree Cut Outline">
		<g
   id="g17"
   style="fill:none">
			
			<path
   class="st3"
   d="m 180.11,312.93 c -5.02,0 -9.92,-0.53 -14.56,-1.58 -3.38,-0.77 -5.71,-2.32 -6.93,-4.59 -2.22,-4.16 -0.14,-9.62 1.7,-14.43 0.83,-2.17 1.61,-4.21 1.93,-5.9 0.81,-4.2 1.26,-8.38 1.58,-12.05 -0.73,-0.34 -1.57,-0.51 -2.49,-0.51 -0.41,0 -0.83,0.04 -1.25,0.11 -1.06,0.17 -2.13,0.55 -3.13,1.12 -7.77,5.2 -16.14,8.19 -22.97,8.19 -6.9,0 -12.19,-2.96 -15.31,-8.56 -0.74,-1.3 -1.35,-2.81 -1.91,-4.73 -0.11,-0.39 -0.21,-0.81 -0.3,-1.23 -0.24,-1.07 -0.42,-1.78 -0.8,-2.01 -0.51,-0.31 -1.37,-0.32 -2.28,-0.33 -0.25,0 -0.5,-0.01 -0.75,-0.01 -4.36,0.4 -8.39,0.61 -12,0.61 -5.77,0 -10.64,-0.53 -14.47,-1.56 -16.23,-4.42 -17.54,-14.41 -17.65,-15.86 -0.24,-1.68 -1.47,-14.23 13.54,-18.44 10.46,-2.92 20.32,-6.91 29.34,-11.88 -3.69,-0.54 -6.61,-1.08 -8.88,-1.63 -16.41,-3.9 -17.61,-14.32 -17.7,-15.87 -0.25,-1.76 -1.44,-14.25 13.52,-18.44 9.41,-2.64 18.37,-6.15 26.68,-10.46 -0.85,-0.12 -1.67,-0.26 -2.44,-0.4 -14.23,-2.64 -15.92,-11.49 -16.11,-13.04 -0.89,-4.05 0.25,-12.56 10.87,-16.74 9.07,-3.59 18.18,-8.64 25.14,-12.89 -0.24,0.01 -0.5,0.01 -0.78,0.01 -7.41,0 -12.95,-3.57 -15.21,-9.8 -3.51,-9.75 4.34,-16.5 8.98,-18.7 22.05,-10.31 37,-40.06 37.14,-40.36 2.17,-4.16 4.5,-6.25 6.95,-6.25 0.18,0 0.35,0.01 0.5,0.03 0.15,-0.02 0.32,-0.03 0.5,-0.03 2.45,0 4.79,2.08 6.95,6.19 0.17,0.35 15.12,30.09 37.14,40.42 4.65,2.21 12.5,8.96 8.97,18.71 -2.25,6.23 -7.79,9.8 -15.19,9.8 -0.28,0 -0.54,0 -0.79,-0.01 6.93,4.25 16.03,9.3 25.16,12.9 10.61,4.18 11.75,12.69 10.85,16.74 -0.19,1.55 -1.87,10.42 -16.12,13.04 -0.76,0.15 -1.58,0.28 -2.44,0.4 8.31,4.31 17.26,7.82 26.67,10.46 14.98,4.17 13.79,16.68 13.54,18.44 -0.09,1.55 -1.3,11.95 -17.71,15.87 -2.25,0.55 -5.16,1.09 -8.86,1.63 9.04,4.96 18.89,8.95 29.31,11.88 15,4.21 13.67,16.67 13.42,18.39 -0.11,1.5 -1.46,11.43 -17.64,15.85 -3.83,1.04 -8.69,1.57 -14.45,1.57 v 0 c -2.91,0 -6.1,-0.13 -9.51,-0.4 h -0.01 c -0.94,0.02 -1.75,0.03 -2.25,0.33 -0.36,0.23 -0.55,0.96 -0.8,2.05 -0.09,0.41 -0.19,0.82 -0.3,1.2 -0.51,1.79 -1.13,3.34 -1.89,4.73 -3.12,5.6 -8.41,8.56 -15.3,8.56 -8.81,0 -17.43,-4.64 -21.83,-7.45 -0.14,-0.08 -0.28,-0.16 -0.41,-0.23 l -0.25,-0.14 c -0.54,-0.32 -1.21,-0.58 -1.88,-0.73 -0.3,-0.05 -0.59,-0.07 -0.87,-0.07 -0.1,0 -0.21,0 -0.31,0.01 -0.87,0.07 -1.84,0.4 -2.71,0.95 -0.33,0.21 -0.67,0.47 -1,0.73 l -0.41,0.31 c -0.12,0.1 -0.25,0.19 -0.38,0.28 l -0.22,0.16 c -0.16,0.13 -0.32,0.24 -0.5,0.35 l -0.11,0.07 c -0.14,0.09 -0.29,0.19 -0.45,0.28 -0.39,0.24 -0.81,0.48 -1.26,0.72 0.33,2.94 0.7,5.44 1.15,7.77 0.32,1.68 1.1,3.72 1.93,5.88 1.85,4.82 3.94,10.29 1.71,14.46 -1.22,2.28 -3.55,3.82 -6.94,4.59 -4.57,0.99 -9.45,1.52 -14.46,1.52 z"
   id="path15"
   inkscape:connector-curvature="0"
   style="display:inline;fill:none;stroke:#000000;stroke-width:0.1;stroke-miterlimit:10;stroke-dasharray:none;stroke-opacity:1" />
		</g>
	<circle
   style="fill:none;fill-opacity:1;stroke:#000000;stroke-width:0.1;stroke-miterlimit:10;stroke-dasharray:none;stroke-opacity:1"
   id="path922"
   cx="179.99725"
   cy="66.073135"
   r="3.1010828" /></g>
	
</g></g></svg>