<?xml version="1.0" encoding="UTF-8" standalone="no"?>
<svg
   xmlns:dc="http://purl.org/dc/elements/1.1/"
   xmlns:cc="http://creativecommons.org/ns#"
   xmlns:rdf="http://www.w3.org/1999/02/22-rdf-syntax-ns#"
   xmlns:svg="http://www.w3.org/2000/svg"
   xmlns="http://www.w3.org/2000/svg"
   xmlns:sodipodi="http://sodipodi.sourceforge.net/DTD/sodipodi-0.dtd"
   xmlns:inkscape="http://www.inkscape.org/namespaces/inkscape"
   version="1.0"
   width="51.55547"
   height="56.42894"
   id="svg2"
   sodipodi:docname="Snow_flake.svg"
   inkscape:version="0.92.5 (2060ec1f9f, 2020-04-08)">
  <metadata
     id="metadata7">
    <rdf:RDF>
      <cc:Work
         rdf:about="">
        <dc:format>image/svg+xml</dc:format>
        <dc:type
           rdf:resource="http://purl.org/dc/dcmitype/StillImage" />
        <dc:title></dc:title>
      </cc:Work>
    </rdf:RDF>
  </metadata>
  <sodipodi:namedview
     pagecolor="#ffffff"
     bordercolor="#666666"
     borderopacity="1"
     objecttolerance="10"
     gridtolerance="10"
     guidetolerance="10"
     inkscape:pageopacity="0"
     inkscape:pageshadow="2"
     inkscape:window-width="3840"
     inkscape:window-height="2047"
     id="namedview5"
     showgrid="false"
     inkscape:zoom="4.3649635"
     inkscape:cx="-54.18331"
     inkscape:cy="47.771733"
     inkscape:window-x="0"
     inkscape:window-y="0"
     inkscape:window-maximized="1"
     inkscape:current-layer="layer1" />
  <defs
     id="defs6" />
  <g
     inkscape:groupmode="layer"
     id="layer1"
     inkscape:label="F.SilkS"
     style="display:inline"
     transform="translate(-252.9124,-251.82607)">
    <path
       d="m 275.99795,251.82607 v 7.02991 l -5.28188,-3.05367 -2.6814,4.62906 7.96328,4.61287 v 10.37492 l -8.9452,-5.16857 -0.0162,-9.24193 -5.35201,0.0112 0.0112,6.1397 -6.10733,-3.52844 -2.67601,4.63446 6.09115,3.51765 -5.28727,3.04288 2.66521,4.63984 7.97947,-4.59129 8.97757,5.18477 -8.94519,5.16317 -8.01185,-4.60747 -2.66521,4.63984 5.31965,3.06447 -6.10734,3.52304 2.67601,4.63446 6.09114,-3.51765 -0.0112,6.10193 5.35201,0.0112 0.0162,-9.20417 8.97757,-5.17937 v 10.32636 l -7.99565,4.63446 2.6814,4.62905 5.31425,-3.07524 v 7.0515 h 5.35201 v -7.02991 l 5.28188,3.05365 2.68139,-4.62905 -7.96327,-4.61287 V 284.6619 l 8.94519,5.16859 0.0162,9.24193 5.35201,-0.0112 -0.0112,-6.1397 6.10732,3.52844 2.67602,-4.63445 -6.09116,-3.51766 5.28727,-3.04288 -2.66521,-4.63984 -7.97407,4.5913 -8.98296,-5.18477 8.95059,-5.16857 8.00644,4.61286 2.66521,-4.63984 -5.31964,-3.06446 6.10734,-3.52305 -2.676,-4.63446 -6.09115,3.51766 0.0112,-6.10194 -5.35201,-0.0112 -0.0162,9.20416 -8.97756,5.17936 v -10.32636 l 7.99564,-4.63445 -2.68139,-4.62906 -5.31425,3.07525 v -7.05149 z"
       id="rect2991"
       style="fill:#000000;fill-opacity:1;stroke:none;stroke-width:0.35693231;stroke-opacity:1"
       inkscape:label="rect2991"
       inkscape:connector-curvature="0" />
  </g>
</svg>
